<svg id="visual" viewBox="0 0 540 960" width="540" height="960" xmlns="http://www.w3.org/2000/svg" xmlns:xlink="http://www.w3.org/1999/xlink" version="1.1"><rect x="0" y="0" width="540" height="960" fill="#150d3b"></rect><path d="M95 0L90.7 14.5C86.3 29 77.7 58 81.5 87.2C85.3 116.3 101.7 145.7 103.7 174.8C105.7 204 93.3 233 88.8 262C84.3 291 87.7 320 86.8 349C86 378 81 407 75.5 436.2C70 465.3 64 494.7 60.7 523.8C57.3 553 56.7 582 64.8 611C73 640 90 669 88.7 698C87.3 727 67.7 756 73 785.2C78.3 814.3 108.7 843.7 109.3 872.8C110 902 81 931 66.5 945.5L52 960" fill="none" stroke="#adeded" stroke-width="40" stroke-linecap="round" stroke-linejoin="miter"></path></svg>